<?xml version="1.0" encoding="UTF-8"?>
<svg xmlns="http://www.w3.org/2000/svg" id="Layer_2" viewBox="0 0 600 179.5903" width="1024px" height="306.50077866667px"><g id="Components"><path id="_7685d192-fc13-4590-9e37-0c4e9177ca75_4" d="M102.3607,117.8429c8.6894,23.8737-3.6201,50.2714-27.4938,58.9606-23.8737,8.6894-50.2714-3.6201-58.9608-27.4938l86.4546-31.4668ZM113.3358,124.6316h33.7814V1.9962h-33.7814v122.6355ZM258.6399,77.3991c0,28.1345-21.8704,50.0049-52.6741,50.0049-30.4966,0-52.6752-21.7682-52.6752-50.0049,0-28.1345,22.1786-49.9028,52.7771-49.9028,30.7018,0,52.5721,21.9734,52.5721,49.9028ZM227.1175,77.3991c0-12.7326-10.1655-21.2549-21.1517-21.2549-10.8842,0-20.8446,8.5223-20.8446,21.2549s9.9604,21.3568,20.9465,21.3568,21.0497-8.6243,21.0497-21.3568ZM105.3492,77.3991c0,28.1345-21.8704,50.0049-52.6743,50.0049C22.1786,127.404,0,105.6358,0,77.3991,0,49.2646,22.1786,27.4963,52.7771,27.4963c30.7018,0,52.5721,21.9734,52.5721,49.9028ZM73.8267,77.3991c0-12.7326-10.1654-21.2549-21.1517-21.2549-10.884,0-20.8444,8.5223-20.8444,21.2549s9.9604,21.3568,20.9465,21.3568,21.0496-8.6243,21.0496-21.3568ZM376.9231,30.2685l-16.4297,50.3133-16.4277-50.3133h-28.3399l-16.3265,50.0049-16.5309-50.0049h-31.4203l31.7275,94.3631h30.1882l16.5318-49.3893,16.634,49.3893h30.0852l31.7275-94.3631h-31.4194ZM598.9731,88.078h-69.308c2.6692,10.4728,13.1429,14.9906,23.3075,14.9906,8.0097,0,16.84-2.5671,22.693-5.8528l12.5265,20.7414c-10.6791,6.4693-22.5899,9.4469-36.5536,9.4469-28.3985,0-49.5599-15.4954-54.3987-39.326h-63.1738c2.6692,10.4728,13.1429,14.9906,23.3075,14.9906,8.0097,0,16.84-2.5671,22.693-5.8528l12.5265,20.7414c-10.6791,6.4693-22.5899,9.4469-36.5536,9.4469-32.4473,0-55.4475-20.228-55.4475-50.0049,0-28.1345,23.0003-49.9028,52.7773-49.9028,21.8595,0,39.527,11.9235,47.0728,29.8521,7.9613-17.7761,26.3571-29.8521,48.5262-29.8521,29.2635,0,51.0318,21.3579,51.0318,49.9028,0,3.7992-.4103,7.3932-1.0269,10.6789ZM473.3919,67.0284c-1.6423-10.5758-9.7541-17.4557-20.0227-17.4557-10.781,0-17.969,6.9819-19.6115,17.4557h39.6342ZM568.991,67.0284c-1.6423-10.5758-9.7541-17.4557-20.0227-17.4557-10.781,0-17.969,6.9819-19.6115,17.4557h39.6342ZM90.1512,30.6541c7.904,0,15.1427-6.2041,15.1427-15.3639S97.981,0,90.0777,0c-7.8298,0-14.9951,6.1306-14.9951,15.2903s7.1653,15.3639,15.0685,15.3639Z"/></g></svg>
